<svg width="100%" height="100%" viewBox="0 0 16 16" fill="none" xmlns="http://www.w3.org/2000/svg">
<path d="M3.48739 15.3267C5.19194 15.3267 6.57688 13.9418 6.58398 12.2443V10.5966H9.4391V12.2443C9.432 13.9418 10.8169 15.3267 12.5215 15.3267C14.2189 15.3267 15.6039 13.9418 15.6039 12.2443C15.6039 10.5398 14.2189 9.15483 12.5215 9.14773H10.888V6.29261H12.5215C14.2189 6.29972 15.6039 4.91477 15.6039 3.21023C15.6039 1.51278 14.2189 0.12784 12.5215 0.12784C10.8169 0.12784 9.432 1.51278 9.4391 3.21023V4.84375H6.58398V3.21023C6.57688 1.51278 5.19194 0.12784 3.48739 0.12784C1.78995 0.12784 0.405007 1.51278 0.405007 3.21023C0.405007 4.91477 1.78995 6.29972 3.48739 6.29261H5.13512V9.14773H3.48739C1.78995 9.15483 0.405007 10.5398 0.405007 12.2443C0.405007 13.9418 1.78995 15.3267 3.48739 15.3267ZM3.48739 13.8778C2.5854 13.8778 1.85387 13.1463 1.85387 12.2443C1.85387 11.3352 2.5854 10.6037 3.48739 10.5966H5.13512V12.2443C5.12802 13.1463 4.39648 13.8778 3.48739 13.8778ZM3.48739 4.84375C2.5854 4.85085 1.85387 4.11932 1.85387 3.21023C1.85387 2.30824 2.5854 1.5767 3.48739 1.5767C4.39648 1.5767 5.12802 2.30824 5.13512 3.21023V4.84375H3.48739ZM12.5215 13.8778C11.6124 13.8778 10.8809 13.1463 10.888 12.2443V10.5966H12.5215C13.4235 10.6037 14.155 11.3352 14.155 12.2443C14.155 13.1463 13.4235 13.8778 12.5215 13.8778ZM10.888 4.84375V3.21023C10.8809 2.30824 11.6124 1.5767 12.5215 1.5767C13.4235 1.5767 14.155 2.30824 14.155 3.21023C14.155 4.11932 13.4235 4.85085 12.5215 4.84375H10.888ZM6.58398 9.14773V6.29261H9.4391V9.14773H6.58398Z" fill="currentColor"/>
</svg>
