<svg width="100%" height="100%" viewBox="0 0 20 16" fill="none" xmlns="http://www.w3.org/2000/svg">
<path d="M2.71662 9.83665V7.43608H14.7621C15.2261 7.43608 15.6475 7.32244 16.0263 7.09517C16.4098 6.8679 16.7128 6.56487 16.9354 6.18608C17.1626 5.80256 17.2763 5.37879 17.2763 4.91477C17.2763 4.45076 17.1626 4.02936 16.9354 3.65057C16.7081 3.27178 16.4051 2.96875 16.0263 2.74148C15.6475 2.5142 15.2261 2.40057 14.7621 2.40057H13.8246V0H14.7621C15.6664 0 16.4903 0.222538 17.2337 0.667614C17.977 1.10795 18.5689 1.69981 19.0092 2.44318C19.4543 3.18182 19.6768 4.00568 19.6768 4.91477C19.6768 5.59186 19.549 6.22869 19.2933 6.82528C19.0376 7.41714 18.6849 7.94034 18.2351 8.39489C17.7853 8.8447 17.2621 9.19744 16.6655 9.45312C16.0736 9.70881 15.4392 9.83665 14.7621 9.83665H2.71662ZM7.00639 15.2699L0.372869 8.63636L7.00639 2.00284L8.64702 3.64347L3.65412 8.63636L8.64702 13.6293L7.00639 15.2699Z" fill="currentColor"/>
</svg>
